<svg width="67" height="51" viewBox="0 0 67 51" fill="none" xmlns="http://www.w3.org/2000/svg">
<path d="M8.89749 47.1925C8.97153 47.5047 9.10796 47.7987 9.29858 48.0568C9.48919 48.3149 9.73005 48.5318 10.0067 48.6944C10.2833 48.857 10.5899 48.9619 10.9081 49.0029C11.2264 49.0439 11.5496 49.0201 11.8584 48.9329C26.0161 45.0239 40.9683 45.0225 55.1267 48.9288C55.4354 49.0159 55.7585 49.0397 56.0766 48.9987C56.3947 48.9577 56.7013 48.8528 56.9778 48.6903C57.2543 48.5278 57.4951 48.3111 57.6857 48.0531C57.8763 47.7952 58.0128 47.5013 58.087 47.1893L65.6539 15.0327C65.7552 14.6022 65.7343 14.152 65.5936 13.7328C65.4528 13.3135 65.1978 12.9419 64.8572 12.6598C64.5167 12.3776 64.1041 12.1962 63.666 12.1359C63.2279 12.0756 62.7816 12.1388 62.3775 12.3184L47.3604 18.9926C46.8182 19.2336 46.2053 19.2629 45.6426 19.0747C45.0798 18.8865 44.6079 18.4945 44.3197 17.9757L35.576 2.2371C35.3704 1.86686 35.0694 1.55835 34.7044 1.34356C34.3393 1.12877 33.9235 1.0155 33.4999 1.0155C33.0764 1.0155 32.6605 1.12877 32.2955 1.34356C31.9305 1.55835 31.6295 1.86686 31.4238 2.2371L22.6801 17.9757C22.392 18.4945 21.92 18.8865 21.3573 19.0747C20.7945 19.2629 20.1817 19.2336 19.6394 18.9926L4.6201 12.3174C4.21605 12.1378 3.76989 12.0746 3.33185 12.1348C2.89382 12.1951 2.4813 12.3764 2.14075 12.6584C1.8002 12.9404 1.54513 13.3119 1.40427 13.731C1.2634 14.1502 1.24234 14.6003 1.34344 15.0307L8.89749 47.1925Z" stroke="black" stroke-width="2" stroke-linecap="round" stroke-linejoin="round"/>
</svg>
