<svg width="65" height="62" viewBox="0 0 65 62" fill="none" xmlns="http://www.w3.org/2000/svg">
<path d="M33.8095 50.6237L48.7826 60.11C50.6965 61.3226 53.0728 59.5192 52.5048 57.285L48.1788 40.2674C48.057 39.7935 48.0714 39.2947 48.2204 38.8286C48.3694 38.3624 48.647 37.9478 49.0212 37.6324L62.4481 26.457C64.2123 24.9886 63.3017 22.0607 61.035 21.9136L43.5004 20.7756C43.0281 20.7418 42.5752 20.5746 42.1942 20.2934C41.8133 20.0122 41.5201 19.6285 41.3487 19.1871L34.8091 2.71856C34.6313 2.25004 34.3152 1.84669 33.9028 1.56206C33.4904 1.27744 33.0011 1.125 32.5 1.125C31.9989 1.125 31.5097 1.27744 31.0972 1.56206C30.6848 1.84669 30.3687 2.25004 30.191 2.71856L23.6513 19.1871C23.48 19.6285 23.1867 20.0122 22.8058 20.2934C22.4249 20.5746 21.9719 20.7418 21.4996 20.7756L3.96498 21.9136C1.69832 22.0607 0.787724 24.9886 2.55196 26.457L15.9788 37.6324C16.353 37.9478 16.6306 38.3624 16.7796 38.8286C16.9286 39.2947 16.943 39.7935 16.8212 40.2674L12.8093 56.0494C12.1278 58.7303 14.9793 60.8945 17.276 59.4394L31.1905 50.6237C31.5818 50.3746 32.0361 50.2423 32.5 50.2423C32.9639 50.2423 33.4182 50.3746 33.8095 50.6237V50.6237Z" stroke="black" stroke-width="2" stroke-linecap="round" stroke-linejoin="round"/>
</svg>
